<svg width="32" height="33" viewBox="0 0 32 33" fill="none" xmlns="http://www.w3.org/2000/svg">
<rect x="2" y="2.76855" width="28" height="28" fill="#191E38"/>
<path d="M12.6186 10.4607C12.6186 11.3953 11.8085 12.1529 10.8093 12.1529C9.81004 12.1529 9 11.3953 9 10.4607C9 9.52616 9.81004 8.76855 10.8093 8.76855C11.8085 8.76855 12.6186 9.52616 12.6186 10.4607Z" fill="white"/>
<path d="M9.24742 13.3967H12.3402V22.7686H9.24742V13.3967Z" fill="white"/>
<path d="M17.3196 13.3967H14.2268V22.7686H17.3196C17.3196 22.7686 17.3196 19.8181 17.3196 17.9734C17.3196 16.8662 17.6977 15.7541 19.2062 15.7541C20.911 15.7541 20.9008 17.2031 20.8928 18.3256C20.8824 19.793 20.9072 21.2904 20.9072 22.7686H24V17.8223C23.9738 14.6639 23.1508 13.2086 20.4433 13.2086C18.8354 13.2086 17.8387 13.9386 17.3196 14.599V13.3967Z" fill="white"/>
</svg>
