<svg width="76" height="76" viewBox="0 0 76 76" fill="none" xmlns="http://www.w3.org/2000/svg">
<path d="M3.56578 46.6086C-1.18859 41.8542 -1.18859 34.1458 3.56578 29.3914L29.3914 3.56578C34.1458 -1.18859 41.8542 -1.18859 46.6086 3.56578L72.4342 29.3914C77.1886 34.1458 77.1886 41.8542 72.4342 46.6086L46.6086 72.4342C41.8542 77.1886 34.1458 77.1886 29.3914 72.4342L3.56578 46.6086Z" fill="#161A42"/>
<path d="M4.27289 45.9014C-0.0909624 41.5376 -0.090962 34.4624 4.27289 30.0986L30.0986 4.27289C34.4624 -0.0909633 41.5376 -0.0909619 45.9014 4.27289L71.7271 30.0986C76.091 34.4624 76.091 41.5376 71.7271 45.9014L45.9014 71.7271C41.5376 76.091 34.4624 76.091 30.0986 71.7271L4.27289 45.9014Z" stroke="url(#paint0_linear_124_7424)" stroke-opacity="0.24" stroke-width="2"/>
<g clip-path="url(#clip0_124_7424)">
<path d="M26 44.6667V47.3333H34V44.6667H26ZM26 28.6667V31.3333H39.3333V28.6667H26ZM39.3333 50V47.3333H50V44.6667H39.3333V42H36.6667V50H39.3333ZM31.3333 34V36.6667H26V39.3333H31.3333V42H34V34H31.3333ZM50 39.3333V36.6667H36.6667V39.3333H50ZM42 34H44.6667V31.3333H50V28.6667H44.6667V26H42V34Z" fill="url(#paint1_linear_124_7424)"/>
</g>
<defs>
<linearGradient id="paint0_linear_124_7424" x1="16.4785" y1="59.5216" x2="59.5212" y2="16.4788" gradientUnits="userSpaceOnUse">
<stop stop-color="#1FA2FF"/>
<stop offset="0.5" stop-color="#12D8FA"/>
<stop offset="1" stop-color="#A6FFCB"/>
</linearGradient>
<linearGradient id="paint1_linear_124_7424" x1="26" y1="38" x2="50" y2="38" gradientUnits="userSpaceOnUse">
<stop stop-color="#1FA2FF"/>
<stop offset="0.5" stop-color="#12D8FA"/>
<stop offset="1" stop-color="#A6FFCB"/>
</linearGradient>
<clipPath id="clip0_124_7424">
<rect width="32" height="32" fill="white" transform="translate(22 22)"/>
</clipPath>
</defs>
</svg>
