<svg width="76" height="76" viewBox="0 0 76 76" fill="none" xmlns="http://www.w3.org/2000/svg">
<path d="M3.56578 46.6086C-1.18859 41.8542 -1.18859 34.1458 3.56578 29.3914L29.3914 3.56578C34.1458 -1.18859 41.8542 -1.18859 46.6086 3.56578L72.4342 29.3914C77.1886 34.1458 77.1886 41.8542 72.4342 46.6086L46.6086 72.4342C41.8542 77.1886 34.1458 77.1886 29.3914 72.4342L3.56578 46.6086Z" fill="#161A42"/>
<path d="M4.27289 45.9014C-0.0909624 41.5376 -0.090962 34.4624 4.27289 30.0986L30.0986 4.27289C34.4624 -0.0909626 41.5376 -0.0909618 45.9014 4.27289L71.7271 30.0986C76.091 34.4624 76.091 41.5376 71.7271 45.9014L45.9014 71.7271C41.5376 76.091 34.4624 76.091 30.0986 71.7271L4.27289 45.9014Z" stroke="url(#paint0_linear_134_7293)" stroke-opacity="0.24" stroke-width="2"/>
<g clip-path="url(#clip0_134_7293)">
<path d="M37.9865 24.667C30.6265 24.667 24.6665 30.6403 24.6665 38.0003C24.6665 45.3603 30.6265 51.3337 37.9865 51.3337C45.3598 51.3337 51.3332 45.3603 51.3332 38.0003C51.3332 30.6403 45.3598 24.667 37.9865 24.667ZM43.6398 46.0003L37.9998 42.6003L32.3598 46.0003L33.8532 39.587L28.8798 35.2803L35.4398 34.7203L37.9998 28.667L40.5598 34.707L47.1198 35.267L42.1465 39.5737L43.6398 46.0003Z" fill="url(#paint1_linear_134_7293)"/>
</g>
<defs>
<linearGradient id="paint0_linear_134_7293" x1="16.4785" y1="59.5226" x2="59.5212" y2="16.4798" gradientUnits="userSpaceOnUse">
<stop stop-color="#1FA2FF"/>
<stop offset="0.5" stop-color="#12D8FA"/>
<stop offset="1" stop-color="#A6FFCB"/>
</linearGradient>
<linearGradient id="paint1_linear_134_7293" x1="24.6665" y1="38.0003" x2="51.3332" y2="38.0003" gradientUnits="userSpaceOnUse">
<stop stop-color="#1FA2FF"/>
<stop offset="0.5" stop-color="#12D8FA"/>
<stop offset="1" stop-color="#A6FFCB"/>
</linearGradient>
<clipPath id="clip0_134_7293">
<rect width="32" height="32" fill="white" transform="translate(22 22)"/>
</clipPath>
</defs>
</svg>
