<svg width="76" height="76" viewBox="0 0 76 76" fill="none" xmlns="http://www.w3.org/2000/svg">
<path d="M3.56578 46.6086C-1.18859 41.8542 -1.18859 34.1458 3.56578 29.3914L29.3914 3.56578C34.1458 -1.18859 41.8542 -1.18859 46.6086 3.56578L72.4342 29.3914C77.1886 34.1458 77.1886 41.8542 72.4342 46.6086L46.6086 72.4342C41.8542 77.1886 34.1458 77.1886 29.3914 72.4342L3.56578 46.6086Z" fill="#161A42"/>
<path d="M4.27289 45.9014C-0.0909624 41.5376 -0.090962 34.4624 4.27289 30.0986L30.0986 4.27289C34.4624 -0.0909626 41.5376 -0.0909618 45.9014 4.27289L71.7271 30.0986C76.091 34.4624 76.091 41.5376 71.7271 45.9014L45.9014 71.7271C41.5376 76.091 34.4624 76.091 30.0986 71.7271L4.27289 45.9014Z" stroke="url(#paint0_linear_134_7284)" stroke-opacity="0.24" stroke-width="2"/>
<g clip-path="url(#clip0_134_7284)">
<path d="M37.0002 28C30.3335 28 24.6402 32.1467 22.3335 38C24.6402 43.8533 30.3335 48 37.0002 48C43.6668 48 49.3602 43.8533 51.6668 38C49.3602 32.1467 43.6668 28 37.0002 28ZM37.0002 44.6667C33.3202 44.6667 30.3335 41.68 30.3335 38C30.3335 34.32 33.3202 31.3333 37.0002 31.3333C40.6802 31.3333 43.6668 34.32 43.6668 38C43.6668 41.68 40.6802 44.6667 37.0002 44.6667ZM37.0002 34C34.7868 34 33.0002 35.7867 33.0002 38C33.0002 40.2133 34.7868 42 37.0002 42C39.2135 42 41.0002 40.2133 41.0002 38C41.0002 35.7867 39.2135 34 37.0002 34Z" fill="url(#paint1_linear_134_7284)"/>
</g>
<defs>
<linearGradient id="paint0_linear_134_7284" x1="16.4785" y1="59.5226" x2="59.5212" y2="16.4798" gradientUnits="userSpaceOnUse">
<stop stop-color="#1FA2FF"/>
<stop offset="0.5" stop-color="#12D8FA"/>
<stop offset="1" stop-color="#A6FFCB"/>
</linearGradient>
<linearGradient id="paint1_linear_134_7284" x1="22.3335" y1="38" x2="51.6668" y2="38" gradientUnits="userSpaceOnUse">
<stop stop-color="#1FA2FF"/>
<stop offset="0.5" stop-color="#12D8FA"/>
<stop offset="1" stop-color="#A6FFCB"/>
</linearGradient>
<clipPath id="clip0_134_7284">
<rect width="32" height="32" fill="white" transform="translate(21 22)"/>
</clipPath>
</defs>
</svg>
