<svg width="76" height="76" viewBox="0 0 76 76" fill="none" xmlns="http://www.w3.org/2000/svg">
<path d="M3.56578 46.6086C-1.18859 41.8542 -1.18859 34.1458 3.56578 29.3914L29.3914 3.56578C34.1458 -1.18859 41.8542 -1.18859 46.6086 3.56578L72.4342 29.3914C77.1886 34.1458 77.1886 41.8542 72.4342 46.6086L46.6086 72.4342C41.8542 77.1886 34.1458 77.1886 29.3914 72.4342L3.56578 46.6086Z" fill="#161A42"/>
<path d="M4.27289 45.9014C-0.0909624 41.5376 -0.090962 34.4624 4.27289 30.0986L30.0986 4.27289C34.4624 -0.0909626 41.5376 -0.0909618 45.9014 4.27289L71.7271 30.0986C76.091 34.4624 76.091 41.5376 71.7271 45.9014L45.9014 71.7271C41.5376 76.091 34.4624 76.091 30.0986 71.7271L4.27289 45.9014Z" stroke="url(#paint0_linear_134_7276)" stroke-opacity="0.24" stroke-width="2"/>
<g clip-path="url(#clip0_134_7276)">
<path d="M50 46V47.3333C50 48.8 48.8 50 47.3333 50H28.6667C27.1867 50 26 48.8 26 47.3333V28.6667C26 27.2 27.1867 26 28.6667 26H47.3333C48.8 26 50 27.2 50 28.6667V30H38C36.52 30 35.3333 31.2 35.3333 32.6667V43.3333C35.3333 44.8 36.52 46 38 46H50ZM38 43.3333H51.3333V32.6667H38V43.3333ZM43.3333 40C42.2267 40 41.3333 39.1067 41.3333 38C41.3333 36.8933 42.2267 36 43.3333 36C44.44 36 45.3333 36.8933 45.3333 38C45.3333 39.1067 44.44 40 43.3333 40Z" fill="url(#paint1_linear_134_7276)"/>
</g>
<defs>
<linearGradient id="paint0_linear_134_7276" x1="16.4785" y1="59.5226" x2="59.5212" y2="16.4798" gradientUnits="userSpaceOnUse">
<stop stop-color="#1FA2FF"/>
<stop offset="0.5" stop-color="#12D8FA"/>
<stop offset="1" stop-color="#A6FFCB"/>
</linearGradient>
<linearGradient id="paint1_linear_134_7276" x1="26" y1="38" x2="51.3333" y2="38" gradientUnits="userSpaceOnUse">
<stop stop-color="#1FA2FF"/>
<stop offset="0.5" stop-color="#12D8FA"/>
<stop offset="1" stop-color="#A6FFCB"/>
</linearGradient>
<clipPath id="clip0_134_7276">
<rect width="32" height="32" fill="white" transform="translate(22 22)"/>
</clipPath>
</defs>
</svg>
