<svg width="32" height="33" viewBox="0 0 32 33" fill="none" xmlns="http://www.w3.org/2000/svg">
<path d="M2.24451 10.7097C2.37304 8.73089 3.96395 7.18012 5.94447 7.082C8.81239 6.93992 12.9115 6.76855 16 6.76855C19.0885 6.76855 23.1876 6.93992 26.0555 7.082C28.0361 7.18012 29.627 8.73089 29.7555 10.7097C29.8786 12.6055 30 14.9382 30 16.7686C30 18.5989 29.8786 20.9316 29.7555 22.8274C29.627 24.8062 28.0361 26.357 26.0555 26.4551C23.1876 26.5972 19.0885 26.7686 16 26.7686C12.9115 26.7686 8.81239 26.5972 5.94447 26.4551C3.96395 26.357 2.37304 24.8062 2.24451 22.8274C2.12136 20.9316 2 18.5989 2 16.7686C2 14.9382 2.12136 12.6055 2.24451 10.7097Z" fill="#191E38"/>
<path d="M13 12.7686V20.7686L21 16.7686L13 12.7686Z" fill="white"/>
</svg>
