<svg width="85" height="86" viewBox="0 0 85 86" fill="none" xmlns="http://www.w3.org/2000/svg">
<rect y="43.3535" width="60" height="60" rx="12" transform="rotate(-45 0 43.3535)" fill="#161A42"/>
<rect x="1.41421" y="43.3535" width="58" height="58" rx="11" transform="rotate(-45 1.41421 43.3535)" stroke="url(#paint0_linear_85_5192)" stroke-opacity="0.24" stroke-width="2"/>
<g clip-path="url(#clip0_85_5192)">
<path d="M35.3334 31.4264H31.3334V35.4264H28.6667V28.7598H35.3334V31.4264ZM55.3334 35.4264V28.7598H48.6667V31.4264H52.6667V35.4264H55.3334ZM35.3334 55.4264H31.3334V51.4264H28.6667V58.0931H35.3334V55.4264ZM52.6667 51.4264V55.4264H48.6667V58.0931H55.3334V51.4264H52.6667ZM51.3334 51.4264C51.3334 52.8931 50.1334 54.0931 48.6667 54.0931H35.3334C33.8667 54.0931 32.6667 52.8931 32.6667 51.4264V35.4264C32.6667 33.9598 33.8667 32.7598 35.3334 32.7598H48.6667C50.1334 32.7598 51.3334 33.9598 51.3334 35.4264V51.4264ZM46.0001 38.0931H38.0001V40.7598H46.0001V38.0931ZM46.0001 42.0931H38.0001V44.7598H46.0001V42.0931ZM46.0001 46.0931H38.0001V48.7598H46.0001V46.0931Z" fill="url(#paint1_linear_85_5192)"/>
</g>
<defs>
<linearGradient id="paint0_linear_85_5192" x1="0" y1="73.3535" x2="60" y2="73.3535" gradientUnits="userSpaceOnUse">
<stop stop-color="#1FA2FF"/>
<stop offset="0.5" stop-color="#12D8FA"/>
<stop offset="1" stop-color="#A6FFCB"/>
</linearGradient>
<linearGradient id="paint1_linear_85_5192" x1="28.6667" y1="43.4264" x2="55.3334" y2="43.4264" gradientUnits="userSpaceOnUse">
<stop stop-color="#1FA2FF"/>
<stop offset="0.5" stop-color="#12D8FA"/>
<stop offset="1" stop-color="#A6FFCB"/>
</linearGradient>
<clipPath id="clip0_85_5192">
<rect width="32" height="32" fill="white" transform="translate(26 27.4268)"/>
</clipPath>
</defs>
</svg>
